<svg width="2393" height="455" viewBox="0 0 2393 455" fill="none" xmlns="http://www.w3.org/2000/svg">
<path d="M1193.65 158.55C1192.45 160.65 1191.15 162.2 1189.75 163.2C1188.45 164.1 1186.8 164.55 1184.8 164.55C1182.7 164.55 1180.4 163.8 1177.9 162.3C1175.5 160.7 1172.6 158.95 1169.2 157.05C1165.8 155.15 1161.8 153.45 1157.2 151.95C1152.7 150.35 1147.35 149.55 1141.15 149.55C1135.55 149.55 1130.65 150.25 1126.45 151.65C1122.25 152.95 1118.7 154.8 1115.8 157.2C1113 159.6 1110.9 162.5 1109.5 165.9C1108.1 169.2 1107.4 172.85 1107.4 176.85C1107.4 181.95 1108.8 186.2 1111.6 189.6C1114.5 193 1118.3 195.9 1123 198.3C1127.7 200.7 1133.05 202.85 1139.05 204.75C1145.05 206.65 1151.2 208.7 1157.5 210.9C1163.8 213 1169.95 215.5 1175.95 218.4C1181.95 221.2 1187.3 224.8 1192 229.2C1196.7 233.5 1200.45 238.8 1203.25 245.1C1206.15 251.4 1207.6 259.05 1207.6 268.05C1207.6 277.85 1205.9 287.05 1202.5 295.65C1199.2 304.15 1194.3 311.6 1187.8 318C1181.4 324.3 1173.55 329.3 1164.25 333C1154.95 336.6 1144.3 338.4 1132.3 338.4C1125.4 338.4 1118.6 337.7 1111.9 336.3C1105.2 335 1098.75 333.1 1092.55 330.6C1086.45 328.1 1080.7 325.1 1075.3 321.6C1069.9 318.1 1065.1 314.2 1060.9 309.9L1072.75 290.55C1073.75 289.15 1075.05 288 1076.65 287.1C1078.25 286.1 1079.95 285.6 1081.75 285.6C1084.25 285.6 1086.95 286.65 1089.85 288.75C1092.75 290.75 1096.2 293 1100.2 295.5C1104.2 298 1108.85 300.3 1114.15 302.4C1119.55 304.4 1126 305.4 1133.5 305.4C1145 305.4 1153.9 302.7 1160.2 297.3C1166.5 291.8 1169.65 283.95 1169.65 273.75C1169.65 268.05 1168.2 263.4 1165.3 259.8C1162.5 256.2 1158.75 253.2 1154.05 250.8C1149.35 248.3 1144 246.2 1138 244.5C1132 242.8 1125.9 240.95 1119.7 238.95C1113.5 236.95 1107.4 234.55 1101.4 231.75C1095.4 228.95 1090.05 225.3 1085.35 220.8C1080.65 216.3 1076.85 210.7 1073.95 204C1071.15 197.2 1069.75 188.85 1069.75 178.95C1069.75 171.05 1071.3 163.35 1074.4 155.85C1077.6 148.35 1082.2 141.7 1088.2 135.9C1094.2 130.1 1101.6 125.45 1110.4 121.95C1119.2 118.45 1129.3 116.7 1140.7 116.7C1153.5 116.7 1165.3 118.7 1176.1 122.7C1186.9 126.7 1196.1 132.3 1203.7 139.5L1193.65 158.55ZM1694.84 303.45C1702.64 303.45 1709.59 302.15 1715.69 299.55C1721.89 296.95 1727.09 293.3 1731.29 288.6C1735.49 283.9 1738.69 278.2 1740.89 271.5C1743.19 264.8 1744.34 257.3 1744.34 249V119.1H1784.69V249C1784.69 261.9 1782.59 273.85 1778.39 284.85C1774.29 295.75 1768.34 305.2 1760.54 313.2C1752.84 321.1 1743.44 327.3 1732.34 331.8C1721.24 336.2 1708.74 338.4 1694.84 338.4C1680.84 338.4 1668.29 336.2 1657.19 331.8C1646.09 327.3 1636.64 321.1 1628.84 313.2C1621.14 305.2 1615.19 295.75 1610.99 284.85C1606.89 273.85 1604.84 261.9 1604.84 249V119.1H1645.19V248.85C1645.19 257.15 1646.29 264.65 1648.49 271.35C1650.79 278.05 1654.04 283.8 1658.24 288.6C1662.54 293.3 1667.74 296.95 1673.84 299.55C1680.04 302.15 1687.04 303.45 1694.84 303.45ZM1895.75 222.3C1903.35 222.3 1909.95 221.35 1915.55 219.45C1921.25 217.55 1925.9 214.95 1929.5 211.65C1933.2 208.25 1935.95 204.25 1937.75 199.65C1939.55 195.05 1940.45 190 1940.45 184.5C1940.45 173.5 1936.8 165.05 1929.5 159.15C1922.3 153.25 1911.25 150.3 1896.35 150.3H1870.55V222.3H1895.75ZM1999.55 336H1963.1C1956.2 336 1951.2 333.3 1948.1 327.9L1902.5 258.45C1900.8 255.85 1898.9 254 1896.8 252.9C1894.8 251.8 1891.8 251.25 1887.8 251.25H1870.55V336H1830.2V119.1H1896.35C1911.05 119.1 1923.65 120.65 1934.15 123.75C1944.75 126.75 1953.4 131 1960.1 136.5C1966.9 142 1971.9 148.6 1975.1 156.3C1978.3 163.9 1979.9 172.3 1979.9 181.5C1979.9 188.8 1978.8 195.7 1976.6 202.2C1974.5 208.7 1971.4 214.6 1967.3 219.9C1963.3 225.2 1958.3 229.85 1952.3 233.85C1946.4 237.85 1939.65 241 1932.05 243.3C1934.65 244.8 1937.05 246.6 1939.25 248.7C1941.45 250.7 1943.45 253.1 1945.25 255.9L1999.55 336ZM2168.99 284.85C2171.19 284.85 2173.14 285.7 2174.84 287.4L2190.74 304.65C2181.94 315.55 2171.09 323.9 2158.19 329.7C2145.39 335.5 2129.99 338.4 2111.99 338.4C2095.89 338.4 2081.39 335.65 2068.49 330.15C2055.69 324.65 2044.74 317 2035.64 307.2C2026.54 297.4 2019.54 285.7 2014.64 272.1C2009.84 258.5 2007.44 243.65 2007.44 227.55C2007.44 211.25 2010.04 196.35 2015.24 182.85C2020.44 169.25 2027.74 157.55 2037.14 147.75C2046.64 137.95 2057.94 130.35 2071.04 124.95C2084.14 119.45 2098.64 116.7 2114.54 116.7C2130.34 116.7 2144.34 119.3 2156.54 124.5C2168.84 129.7 2179.29 136.5 2187.89 144.9L2174.39 163.65C2173.59 164.85 2172.54 165.9 2171.24 166.8C2170.04 167.7 2168.34 168.15 2166.14 168.15C2164.64 168.15 2163.09 167.75 2161.49 166.95C2159.89 166.05 2158.14 165 2156.24 163.8C2154.34 162.5 2152.14 161.1 2149.64 159.6C2147.14 158.1 2144.24 156.75 2140.94 155.55C2137.64 154.25 2133.79 153.2 2129.39 152.4C2125.09 151.5 2120.09 151.05 2114.39 151.05C2104.69 151.05 2095.79 152.8 2087.69 156.3C2079.69 159.7 2072.79 164.7 2066.99 171.3C2061.19 177.8 2056.69 185.8 2053.49 195.3C2050.29 204.7 2048.69 215.45 2048.69 227.55C2048.69 239.75 2050.39 250.6 2053.79 260.1C2057.29 269.6 2061.99 277.6 2067.89 284.1C2073.79 290.6 2080.74 295.6 2088.74 299.1C2096.74 302.5 2105.34 304.2 2114.54 304.2C2120.04 304.2 2124.99 303.9 2129.39 303.3C2133.89 302.7 2137.99 301.75 2141.69 300.45C2145.49 299.15 2149.04 297.5 2152.34 295.5C2155.74 293.4 2159.09 290.85 2162.39 287.85C2163.39 286.95 2164.44 286.25 2165.54 285.75C2166.64 285.15 2167.79 284.85 2168.99 284.85ZM2258.88 151.2V211.35H2334.78V242.4H2258.88V303.75H2355.18V336H2218.38V119.1H2355.18V151.2H2258.88Z" fill="#B8DBD9"/>
<path d="M1417.19 97.1475C1385.8 97.1475 1355.13 104.725 1329.04 118.923C1302.94 133.12 1282.61 153.299 1270.6 176.909C1258.59 200.518 1255.45 226.497 1261.57 251.561C1267.69 276.625 1282.8 299.647 1304.99 317.717C1327.18 335.787 1355.45 348.092 1386.23 353.078C1417.01 358.063 1448.91 355.505 1477.9 345.725C1506.9 335.946 1531.68 319.385 1549.11 298.137C1566.55 276.889 1575.85 251.909 1575.85 226.354C1575.85 192.086 1559.14 159.222 1529.38 134.991C1499.62 110.76 1459.27 97.1475 1417.19 97.1475V97.1475ZM1497.11 227H1512.39C1512.18 247.456 1502.06 267.017 1484.23 281.429C1466.4 295.841 1442.31 303.938 1417.19 303.959H1415.5V291.603H1417.19C1438.27 291.583 1458.5 284.785 1473.47 272.688C1488.43 260.591 1496.93 244.172 1497.11 227V227ZM1297 227H1281.13V226.354C1281.15 197.22 1295.27 169.265 1320.42 148.544C1345.57 127.822 1379.73 116.001 1415.5 115.64V128.561C1383.94 128.942 1353.83 139.408 1331.66 157.702C1309.5 175.996 1297.04 200.653 1297 226.354V227ZM1337.16 227H1321.89V226.354C1321.91 206.022 1331.73 186.508 1349.24 172.011C1366.74 157.513 1390.54 149.19 1415.5 148.83V161.266C1394.59 161.625 1374.68 168.638 1360.03 180.803C1345.39 192.969 1337.18 209.319 1337.16 226.354V227ZM1380 226.354C1380 220.365 1382.18 214.51 1386.27 209.53C1390.35 204.55 1396.16 200.668 1402.95 198.376C1409.75 196.084 1417.23 195.485 1424.44 196.653C1431.65 197.822 1438.28 200.706 1443.48 204.941C1448.68 209.176 1452.22 214.572 1453.66 220.446C1455.09 226.32 1454.36 232.409 1451.54 237.943C1448.73 243.476 1443.96 248.206 1437.85 251.533C1431.73 254.861 1424.54 256.637 1417.19 256.637C1407.32 256.637 1397.86 253.446 1390.89 247.767C1383.92 242.088 1380 234.385 1380 226.354V226.354ZM1417.19 337.068H1415.5V323.905H1417.19C1448.83 323.864 1479.18 313.669 1501.66 295.53C1524.14 277.391 1536.94 252.769 1537.28 227H1553.14C1552.88 256.238 1538.45 284.208 1512.99 304.822C1487.52 325.437 1453.09 337.026 1417.19 337.068Z" fill="#FF5400"/>
<path d="M202.05 232.65V315.15C191.25 322.95 179.7 328.8 167.4 332.7C155.2 336.5 141.8 338.4 127.2 338.4C109.9 338.4 94.3 335.75 80.4 330.45C66.5 325.05 54.6 317.55 44.7 307.95C34.9 298.25 27.35 286.65 22.05 273.15C16.75 259.65 14.1 244.8 14.1 228.6C14.1 212.2 16.65 197.25 21.75 183.75C26.95 170.25 34.3 158.7 43.8 149.1C53.3 139.4 64.85 131.9 78.45 126.6C92.05 121.3 107.25 118.65 124.05 118.65C132.55 118.65 140.45 119.3 147.75 120.6C155.05 121.8 161.8 123.6 168 126C174.2 128.3 179.95 131.15 185.25 134.55C190.55 137.85 195.5 141.6 200.1 145.8L191.85 159C190.55 161 188.85 162.3 186.75 162.9C184.75 163.4 182.5 162.9 180 161.4C177.6 160 174.85 158.3 171.75 156.3C168.65 154.3 164.85 152.4 160.35 150.6C155.95 148.7 150.7 147.1 144.6 145.8C138.6 144.5 131.45 143.85 123.15 143.85C111.05 143.85 100.1 145.85 90.3 149.85C80.5 153.75 72.15 159.4 65.25 166.8C58.35 174.1 53.05 183 49.35 193.5C45.65 203.9 43.8 215.6 43.8 228.6C43.8 242.1 45.7 254.2 49.5 264.9C53.4 275.5 58.9 284.55 66 292.05C73.2 299.45 81.9 305.1 92.1 309C102.3 312.9 113.75 314.85 126.45 314.85C136.45 314.85 145.3 313.75 153 311.55C160.8 309.25 168.4 306.1 175.8 302.1V254.85H142.35C140.45 254.85 138.9 254.3 137.7 253.2C136.6 252.1 136.05 250.75 136.05 249.15V232.65H202.05ZM358.983 256.2L325.233 168.75C324.233 166.15 323.183 163.15 322.083 159.75C320.983 156.25 319.933 152.55 318.933 148.65C316.833 156.75 314.683 163.5 312.483 168.9L278.733 256.2H358.983ZM419.583 336H397.083C394.483 336 392.383 335.35 390.783 334.05C389.183 332.75 387.983 331.1 387.183 329.1L367.083 277.2H270.633L250.533 329.1C249.933 330.9 248.783 332.5 247.083 333.9C245.383 335.3 243.283 336 240.783 336H218.283L304.233 121.05H333.633L419.583 336ZM1031.05 312.3L1030.9 336H898.446V121.05H1030.9V144.75H927.546V216.15H1011.25V238.95H927.546V312.3H1031.05Z" fill="#FF5400"/>
<path d="M653.647 94C569.072 94 495.057 121.335 495.057 121.335L487.2 124.223L486.365 132.094L468.557 267.906C463.748 305.483 490.605 340.516 528.182 345.339C563.162 349.844 594.538 326.233 602.714 292.75H704.58C712.795 326.233 744.118 349.844 779.111 345.339C816.688 340.516 843.546 305.483 838.736 267.906L820.928 132.094L820.093 124.223L812.236 121.322C812.236 121.322 738.221 94 653.647 94ZM653.647 120.5C726.31 120.5 786.253 140.68 796.084 144.098L812.236 271.63C812.986 277.128 812.635 282.721 811.204 288.083C809.772 293.444 807.289 298.468 803.898 302.861C800.508 307.254 796.277 310.929 791.453 313.672C786.629 316.415 781.308 318.172 775.798 318.839C752.452 321.834 731.186 305.735 728.178 282.402L727.767 277.844L726.111 266.25H581.169L579.513 277.844L579.102 282.402C576.094 305.735 554.828 321.834 531.482 318.839C525.973 318.172 520.651 316.415 515.827 313.672C511.003 310.929 506.772 307.254 503.382 302.861C499.991 298.468 497.508 293.444 496.076 288.083C494.645 282.721 494.294 277.128 495.044 271.63L511.196 144.098C521.041 140.68 580.984 120.5 653.647 120.5ZM560.897 160.25V186.75H534.397V213.25H560.897V239.75H587.397V213.25H613.897V186.75H587.397V160.25H560.897ZM733.147 160.25C725.859 160.25 719.897 166.212 719.897 173.5C719.897 180.788 725.859 186.75 733.147 186.75C740.434 186.75 746.397 180.788 746.397 173.5C746.397 166.212 740.434 160.25 733.147 160.25ZM706.647 186.75C699.359 186.75 693.397 192.712 693.397 200C693.397 207.288 699.359 213.25 706.647 213.25C713.934 213.25 719.897 207.288 719.897 200C719.897 192.712 713.934 186.75 706.647 186.75ZM759.647 186.75C752.359 186.75 746.397 192.712 746.397 200C746.397 207.288 752.359 213.25 759.647 213.25C766.934 213.25 772.897 207.288 772.897 200C772.897 192.712 766.934 186.75 759.647 186.75ZM733.147 213.25C725.859 213.25 719.897 219.212 719.897 226.5C719.897 233.788 725.859 239.75 733.147 239.75C740.434 239.75 746.397 233.788 746.397 226.5C746.397 219.212 740.434 213.25 733.147 213.25Z" fill="#B8DBD9"/>
</svg>
